# xmcd
#
# Track frame offsets:
#	150
#	10685
#	19205
#	32501
#	53314
#	73021
#	79072
#	93115
#	113706
#	133612
#	139094
#	145039
#	153369
#	168457
#	183197
#	193004
#	199674
#	204243
#	217594
#	223590
#	237052
#	248098
#	263689
#	272157
#	278622
#	283219
#	287306
#	292342
#	297389
#	304690
#	310111
#	315631
#	323419
#	331904
#	337057
#
# Disc length: 4627 seconds
#
# Revision: 0
# Processed by: cddbd v1.5.2PL0 Copyright (c) Steve Scherf et al.
# Submitted via: audiograbber 1.83.01
#
DISCID=f3121123
DTITLE=диажояои (BY DJ ZRAF) - нежамтыла LIVE [CD 1)
DYEAR=2007
DGENRE=каийа
TTITLE0=цомидгс - лг яытас то циати
TTITLE1=цомидгс - упожеяы
TTITLE2=цомидгс - еисаи лиа пкгцг айола
TTITLE3=цомидгс - лиа ацапг дем текеиымеи
TTITLE4=лайяопоукос - А) упопто Б) пио поку
TTITLE5=лайяопоукос - еисаи жобеяг
TTITLE6=лайяопоукос - А) глоум йапоте циа сема Б) латымы Ц) дем евеи сидеяа
TTITLE7=лайяопоукос - А) етси Б) ха лоу йкеисеис то спити Ц) упо то лгдем
TTITLE8=йыстопоукос - еисаи лиа хеа
TTITLE9=йыстопоукос - летамиымы
TTITLE10=йыстопоукос - то кахос лоу то текеутаио
TTITLE11=йыстопоукос - паяастяатгла
TTITLE12=памтафгс - ока та кежта коукоудиа
TTITLE13=памтафгс - то 'лаха апо пяыто веяи
TTITLE14=памтафгс - маи маи
TTITLE15=йомтокафос - сам тяекос с' ацапаы
TTITLE16=йомтокафос - йапоу йапоу се хулалаи
TTITLE17=йомтокафос - ам л' ацапоусес кицо
TTITLE18=йомтокафос - ецы дем глоума акгтгс
TTITLE19=йомтокафос and басикеиадоу - лиа истояиа
TTITLE20=йаяоусайгс - ецы циа то ватгяи соу (лпелпейа лоу)
TTITLE21=йаяоусайгс - ха та йаьы та кежта лоу
TTITLE22=йаяоусайгс - о диабокайос
TTITLE23=доуйисса - акка ыяаиос тяекос
TTITLE24=доуйисса - жаимолемо
TTITLE25=доуйисса - лекамоуяи
TTITLE26=доуйисса - ема пкгцылемо векидоми
TTITLE27=бекгс - ецы о немос
TTITLE28=бекгс - цуяисе йомта лоу
TTITLE29=бекгс - жаялайылема веикг
TTITLE30=бекгс - еилаи тоу бояиа о циос
TTITLE31=памтафгс - ас' том тяеко стгм тяека тоу
TTITLE32=памтафгс - ежта мола с' ема дыла
TTITLE33=памтафгс - паки есу
TTITLE34=памтафгс - ецы дем еилаи ецы
EXTD=
EXTT0=
EXTT1=
EXTT2=
EXTT3=
EXTT4=
EXTT5=
EXTT6=
EXTT7=
EXTT8=
EXTT9=
EXTT10=
EXTT11=
EXTT12=
EXTT13=
EXTT14=
EXTT15=
EXTT16=
EXTT17=
EXTT18=
EXTT19=
EXTT20=
EXTT21=
EXTT22=
EXTT23=
EXTT24=
EXTT25=
EXTT26=
EXTT27=
EXTT28=
EXTT29=
EXTT30=
EXTT31=
EXTT32=
EXTT33=
EXTT34=
PLAYORDER=
